<?xml version="1.0" encoding="UTF-8" standalone="no"?>
<!-- Created with Inkscape (http://www.inkscape.org/) -->

<svg
   width="338.66666mm"
   height="79.375mm"
   viewBox="0 0 338.66666 79.375"
   version="1.1"
   id="svg1"
   xml:space="preserve"
   inkscape:export-filename="evidenza-header.svg"
   inkscape:export-xdpi="96"
   inkscape:export-ydpi="96"
   xmlns:inkscape="http://www.inkscape.org/namespaces/inkscape"
   xmlns:sodipodi="http://sodipodi.sourceforge.net/DTD/sodipodi-0.dtd"
   xmlns="http://www.w3.org/2000/svg"
   xmlns:svg="http://www.w3.org/2000/svg"><sodipodi:namedview
     id="namedview1"
     pagecolor="#ffffff"
     bordercolor="#666666"
     borderopacity="1.0"
     inkscape:showpageshadow="2"
     inkscape:pageopacity="0.0"
     inkscape:pagecheckerboard="0"
     inkscape:deskcolor="#d1d1d1"
     inkscape:document-units="mm" /><defs
     id="defs1" /><g
     inkscape:label="Livello 1"
     inkscape:groupmode="layer"
     id="layer1"
     transform="translate(60.083641,-69.125)"><path
       style="fill:#ffffff;fill-opacity:0.34;stroke-width:0.999998;stroke-linecap:square;paint-order:stroke markers fill"
       d="m -28.686236,145.79406 -60.624286,-30.65901 -0.131402,-35.32044 c -0.07227,-19.426246 -0.01154,-35.320448 0.134979,-35.320448 0.146511,0 27.659232,13.849498 61.139387,30.776662 l 60.873002,30.776656 v 35.21939 c 0,19.37068 -0.172662,35.21194 -0.383696,35.2028 -0.211035,-0.009 -27.6646271,-13.81315 -61.007984,-30.67561 z"
       id="path3" /><path
       style="fill:#ffffff;fill-opacity:0.34;stroke-width:1;stroke-linecap:square;paint-order:stroke markers fill"
       d="m 219.17296,103.71068 -46.04687,-24.360051 -0.0998,-32.826278 c -0.055,-15.435076 -0.009,-28.063786 0.10253,-28.063786 0.11127,0 21.00842,11.004082 46.43811,24.453528 L 265.8027,67.36762 v 32.74599 c 0,15.39093 -0.13114,27.97757 -0.29143,27.9703 -0.16029,-0.007 -21.01252,-10.9752 -46.3383,-24.37323 z"
       id="path3-0"
       sodipodi:nodetypes="cccsscscsc" /><path
       style="fill:#ffffff;fill-opacity:0.34;stroke-width:0.999998;stroke-linecap:square;paint-order:stroke markers fill"
       d="m 47.128737,201.93919 -60.624283,-30.65901 -0.131402,-35.32044 c -0.07227,-19.42625 -0.01154,-35.32045 0.134979,-35.32045 0.146511,0 27.659236,13.8495 61.139386,30.77666 l 60.873013,30.77666 V 197.412 c 0,19.37068 -0.17266,35.21194 -0.38369,35.2028 -0.21104,-0.009 -27.664643,-13.81315 -61.008003,-30.67561 z"
       id="path3-2" /><path
       style="fill:#ffffff;fill-opacity:0.34;stroke-width:0.999998;stroke-linecap:square;paint-order:stroke markers fill"
       d="m 246.25456,170.95407 -60.62428,-30.65901 -0.13141,-35.32044 c -0.0723,-19.426253 -0.0115,-35.320453 0.13498,-35.320453 0.14651,0 27.65924,13.8495 61.13939,30.776663 l 60.87301,30.77666 v 35.21939 c 0,19.37068 -0.17266,35.21194 -0.38369,35.2028 -0.21104,-0.009 -27.66464,-13.81315 -61.008,-30.67561 z"
       id="path3-2-4" /></g></svg>
